<svg xmlns="http://www.w3.org/2000/svg" width="110" height="20" fill="none" viewBox="0 0 110 20"><path fill="#fff" d="M108.587 18.75c0-1.137-.7-1.575-1.75-1.575h-8.05c-3.937 0-4.9-2.363-5.075-3.85h10.938c3.325 0 4.375-2.45 4.375-4.025 0-1.663-1.05-4.025-4.375-4.025h-6.038c-5.687 0-7.524 3.85-7.524 7 0 3.412 2.1 7 7.525 7h9.974v-.525Zm-9.8-11.375h5.25c1.925 0 2.363 1.137 2.363 1.925 0 .7-.438 1.925-2.363 1.925h-10.5c.175-1.225 1.313-3.85 5.25-3.85ZM75.425 18.488c-.612.787-.875 1.137-1.487 1.137-.788 0-.963-.35-1.488-1.137-1.225-1.75-8.575-13.125-8.575-13.125h1.05c1.75 0 2.275.787 2.8 1.662.438.7 6.388 9.8 6.388 9.8s5.6-8.662 6.387-9.887c.525-.788 1.225-1.575 2.888-1.575h.787s-7.7 11.724-8.75 13.124Zm-55.212.875c-1.313 0-1.838-.526-2.013-1.575l-.35-1.488c-.35.613-2.1 3.063-5.95 3.063H7.962c-5.95 0-7.612-4.025-7.612-7 0-3.325 2.012-7 7.612-7h4.2c4.288 0 6.65 2.45 7.175 5.512.438 2.537 1.576 8.488 1.576 8.488h-.7ZM11.55 7.55H8.225c-4.025 0-5.338 2.538-5.338 4.813 0 2.274 1.313 4.812 5.338 4.812h3.325c4.2 0 5.337-2.625 5.337-4.813 0-1.925-1.05-4.812-5.337-4.812Zm75.338-4.462c.612 0 1.224-.35 1.224-1.138v-.438c0-.7-.612-1.137-1.224-1.137-.613 0-1.226.35-1.226 1.137v.438c0 .787.613 1.137 1.225 1.137ZM85.75 5.362h.525c1.137 0 1.837.613 1.837 1.838v12.163h-.524c-1.138 0-1.838-.7-1.838-1.925V5.363Zm-60.9 2.013c.525-.525 2.1-2.013 5.162-2.013h3.938c5.95 0 7.7 4.025 7.7 7 0 3.325-2.1 7-7.7 7h-4.2c-4.288 0-7.35-2.712-7.35-7V.638h.7c1.225 0 1.75.613 1.75 1.663v5.075Zm5.512 9.8h3.326c3.937 0 5.337-2.538 5.337-4.813 0-2.274-1.313-4.812-5.337-4.812h-3.326c-4.2 0-5.337 2.625-5.337 4.813-.087 1.925 1.05 4.812 5.338 4.812Zm16.45-9.8c.526-.525 2.1-2.013 5.163-2.013h3.938c5.95 0 7.612 4.025 7.612 7 0 3.325-2.012 7-7.612 7h-4.2c-4.288 0-7.35-2.712-7.35-7V.638h.7c1.224 0 1.75.613 1.75 1.663v5.075Zm5.513 9.8h3.325c4.025 0 5.337-2.538 5.337-4.813 0-2.274-1.312-4.812-5.337-4.812h-3.325c-4.2 0-5.338 2.625-5.338 4.813-.087 1.925 1.05 4.812 5.338 4.812Z"/></svg>