<svg xmlns="http://www.w3.org/2000/svg" width="40" height="40" fill="none" viewBox="0 0 40 40"><path fill="#fff" d="M13 27.75c0 .75.5 1.25 1.25 1.25H28v-2.5H14.25c-.75 0-1.25.5-1.25 1.25ZM23 19H9.25C8.5 19 8 19.5 8 20.25s.5 1.25 1.25 1.25H23V19ZM28 14v-2.5H14.25c-.75 0-1.25.5-1.25 1.25S13.5 14 14.25 14H28ZM4.25 19C3.5 19 3 19.5 3 20.25s.5 1.25 1.25 1.25S5.5 21 5.5 20.25 5 19 4.25 19ZM8 26.5c-.75 0-1.25.5-1.25 1.25S7.25 29 8 29s1.25-.5 1.25-1.25S8.75 26.5 8 26.5ZM8 14c.75 0 1.25-.5 1.25-1.25S8.75 11.5 8 11.5s-1.25.5-1.25 1.25S7.25 14 8 14Z"/><path fill="#676BEB" d="m37.875 20.75-7.5 15c-.25.375-.625.75-1.125.75H13c-.75 0-1.25-.5-1.25-1.25S12.25 34 13 34h15.5l6.875-13.75L28.5 6.5H13c-.75 0-1.25-.5-1.25-1.25S12.25 4 13 4h16.25c.5 0 .875.25 1.125.75l7.5 15c.125.375.125.75 0 1.125v-.125Z"/></svg>