<svg xmlns="http://www.w3.org/2000/svg" width="26" height="26" fill="none" viewBox="0 0 26 26"><path fill="#fff" fill-rule="evenodd" d="M18.834 4.27A10.5 10.5 0 0 0 13 2.5 10.53 10.53 0 0 0 2.5 13a10.5 10.5 0 1 0 16.334-8.73ZM6.194 2.815A12.25 12.25 0 0 1 13 .75 12.286 12.286 0 0 1 25.25 13 12.25 12.25 0 1 1 6.194 2.814ZM17.375 7.75V9.5h-7v2.625h5.25a1.752 1.752 0 0 1 1.75 1.75V16.5a1.752 1.752 0 0 1-1.75 1.75h-1.75v2.625h-1.75V18.25h-3.5V16.5h7v-2.625h-5.25a1.752 1.752 0 0 1-1.75-1.75V9.5a1.752 1.752 0 0 1 1.75-1.75h1.75V5.125h1.75V7.75h3.5Z" clip-rule="evenodd"/></svg>