<svg xmlns="http://www.w3.org/2000/svg" width="28" height="26" fill="none" viewBox="0 0 28 26"><path fill="#fff" fill-rule="evenodd" d="M22.142 9.546 21.11 9.36l-.198-1.029a7.126 7.126 0 0 0-5.296-5.64 6.975 6.975 0 0 0-2.637-.114 7.18 7.18 0 0 0-5.9 5.812l-.187.971-1.18.214A4.818 4.818 0 0 0 1.83 15.2a4.928 4.928 0 0 0 4.902 3.925h5.515v1.75h-5.45a6.723 6.723 0 0 1-6.75-5.767A6.568 6.568 0 0 1 5.4 7.85 8.752 8.752 0 0 1 15.655.909 8.756 8.756 0 0 1 22.6 7.85a6.564 6.564 0 0 1 5.382 6.899h-1.776a4.744 4.744 0 0 0-1.768-4.202 5.067 5.067 0 0 0-2.297-1.002Zm-.267 9.579h4.375v1.75h-4.375v4.375h-1.75v-4.375H15.75v-1.75h4.375V14.75h1.75v4.375Z" clip-rule="evenodd"/></svg>