<svg fill="none" height="55" viewBox="0 0 83 55" width="83" xmlns="http://www.w3.org/2000/svg"><g clip-rule="evenodd" fill="#fff" fill-rule="evenodd"><path d="m14.405 55 10.56-17.849h57.047v17.849zm18.882-11.708h-1.951v5.51h1.262l.115-2.984.088.214c.38.929.76 1.856 1.174 2.77h.919c.246-.56.471-1.127.689-1.7l.287-.757.286-.757.115 3.214h1.263v-5.51h-1.837a1.013 1.013 0 0 0 -.064.069c-.073.087-.113.202-.309.77v.001c-.21.567-.314.85-.425 1.132-.111.283-.229.564-.464 1.127zm6.657 0h3.673v1.148h-2.295v1.033h2.18v1.148h-2.18v1.033h2.525v1.263h-3.903zm21.205.332c-.065-.053-.135-.099-.315-.217-.814-.355-1.49-.44-2.367-.258-.74.274-1.403.725-1.788 1.428-.373.836-.475 1.634-.2 2.517.324.74.822 1.31 1.558 1.65.933.317 1.871.33 2.769-.093l.036-.02c.345-.184.433-.231.566-.633l-.803-.803c-.1.08-.156.126-.216.165-.078.05-.163.09-.358.18-.609.125-1.161.202-1.722-.116v-.23c-.385-.529-.409-.971-.344-1.606l.115-.23.003-.012c.105-.348.156-.52.477-.712.466-.114.898-.15 1.362-.007.085.028.14.046.195.061.1.028.202.046.488.096l.337-.243c.204-.285.313-.448.352-.79a3.077 3.077 0 0 0 -.145-.127zm8.753-.332h1.378v4.362h2.066v1.148h-3.444zm-15.61 0h-1.378v5.51h1.378zm-4.753.288c-.532-.288-1.22-.288-3.741-.288v5.51l1.45.014.452.006.362.002c.522.005.922-.06 1.409-.252.639-.42 1.193-.964 1.377-1.722l.017-.217c.055-.697.117-1.476-.275-2.064l-.2-.244-.23-.287c-.244-.203-.422-.35-.621-.458zm-.834.992c-.256-.132-.58-.132-1.53-.132v3.1c.162 0 .304.003.433.007.575.015.878.023 1.404-.352.29-.313.44-.547.499-.973.02-.569.004-.885-.384-1.323-.174-.156-.289-.26-.422-.327zm16.33-1.345h.333l.334-.007c.156.038.23.056.288.096.054.037.094.093.172.2.242.465.443.943.642 1.428l.13.312.27.651c.137.334.276.667.414 1l.263.634.126.302.115.28.102.247c.034.098.052.148.061.2.01.056.01.113.01.232-.414.138-.713.152-1.148.115-.17-.1-.252-.148-.325-.208-.07-.056-.13-.123-.249-.252l-.114-.573h-2.181l-.23.688c-.114.115-.172.172-.241.204-.07.031-.15.037-.312.048l-.38-.008-.38-.006-.294-.008c.077-.53.273-1.004.475-1.493l.041-.1.12-.296.254-.616c.129-.313.256-.628.384-.942l.246-.6.116-.284c.32-.772.423-1.02.608-1.133.087-.053.194-.077.35-.11zm.276 1.672c.28.14.337.316.42.573.016.05.033.103.053.159l.123.34c.045.147.068.223.08.301.013.084.013.17.013.349h-1.263c.125-.633.254-1.155.574-1.722z"/><path d="m0 .938h81.954v35.525h-57.62l-10.618 18.537h68.238-81.954zm64.852 11.707h-7.002v.574c.321.042.636.104.952.171l.275.073c.132.026.198.04.26.066.062.027.12.067.235.15.304.56.384 1.007.388 1.64l-.003.322v1.08l-.004.772c0 .537 0 1.074-.003 1.61a561.845 561.845 0 0 0 -.009 3.73l-.002.78c0 .373 0 .747-.003 1.12l-.001.343v.322l-.003.297a3.164 3.164 0 0 1 -.274 1.298c-.314.264-.475.4-.657.49-.19.095-.404.142-.84.237l-.31.077v.803h7v-.803c-.238-.059-.476-.12-.713-.186l-.262-.08a2.04 2.04 0 0 1 -.77-.392c-.262-.744-.397-1.124-.46-1.517-.064-.412-.05-.836-.018-1.707l-.007-.437-.01-.266c-.025-.595-.047-1.122.326-1.636l.308-.207.207-.157.173-.109.309-.193c0 .089 0 .143.014.194.022.08.08.15.227.33.311.362.587.74.861 1.131l.196.282c.216.31.432.622.647.934l.235.343c.256.371.51.744.763 1.117l.249.368.243.356.225.335c.288.425.366.626.472 1.152l-1.607.345v.803h6.887v-.803c-1.163-.203-1.766-.802-2.443-1.74a75.29 75.29 0 0 0 -.484-.679c-.313-.43-.625-.86-.935-1.292l-.76-1.055-.371-.514-.042-.058c-.304-.421-.606-.842-.913-1.26l-.213-.288-.41-.56-.196-.264-.18-.245c-.212-.287-.383-.52-.4-.883l.001-.001v-.001c.167-.221.251-.332.34-.438.09-.106.187-.207.379-.41l.285-.285.483-.483.17-.169c.25-.249.507-.524.772-.807 1.043-1.117 2.213-2.37 3.604-2.73l.394-.071v-.918h-5.05v.573l1.033.46-.029.423c-.137.416-.207.627-.325.806-.121.184-.294.333-.643.636-.253.216-.499.433-.736.667-.469.476-.944.94-1.438 1.392-.472.429-.942.861-1.408 1.297l-.23.215-.669.625-.146.137c-.003-.647-.005-1.295-.006-1.942l-.002-.791c0-.39-.002-.78-.003-1.169v-.369l-.002-.36v-.334c-.001-.347.016-.556.127-.89.26-.328.429-.448.83-.579l.404-.08.407-.084.31-.06v-.573zm-9.422 1.765-.22-.157c-3.209-2.297-7.653-2.392-10.851-.009-1.614 1.361-2.653 3.18-2.924 5.29-.189 2.485.474 4.729 2.066 6.657 1.52 1.598 3.675 2.464 5.859 2.55 2.536.023 4.652-.62 6.517-2.4 1.518-1.52 2.203-3.436 2.249-5.561l.003-.364c.005-.45-.003-.893-.05-1.342-.36-1.749-1.215-3.546-2.65-4.665zm-5.478-.87a5.19 5.19 0 0 0 -3.354 1.02l-.093.06c-1.263.95-1.762 2.526-2.038 4.013-.146 1.355-.19 2.797.061 4.158.229 1.326.753 2.701 1.751 3.578l.049.039c.387.374.817.677 1.294.903.138.067.282.128.435.185.05.015.099.03.149.043.185.059.377.107.575.144.086.005.172.01.257.013 1.082.115 2.185-.097 3.18-.558.289-.151.55-.324.784-.516.05-.037.101-.076.151-.116.807-.737 1.23-1.594 1.597-2.61l.116-.308c.163-.546.279-1.106.35-1.67a9.912 9.912 0 0 0 -.139-3.415 9.828 9.828 0 0 0 -.814-2.358l-.021-.04a4.545 4.545 0 0 0 -.768-1.073 4.275 4.275 0 0 0 -1.774-1.157l-.063-.018c-.144-.06-.292-.12-.445-.178a6.8 6.8 0 0 0 -1.24-.14zm-13.531.42c.18.134.36.27.538.408l.217.16c1.43 1.12 2.21 2.917 2.538 4.661.046.473.054.939.05 1.413l-.003.38c-.045 2.09-.782 3.986-2.248 5.496-1.824 1.613-4.205 2.396-6.633 2.257-1.769-.145-3.381-.698-4.826-1.74l-.246-.178c-1.49-1.187-2.274-3.046-2.623-4.873-.05-.51-.06-1.016-.057-1.528l.002-.412c.021-1.06.158-1.919.629-2.881l.176-.365c1.154-2.151 2.955-3.289 5.219-3.997 2.346-.55 5.271-.163 7.267 1.198zm-8.07.523-.212.134c-.873.644-1.417 1.724-1.752 2.816l-.027.064c-.517 1.58-.548 3.394-.214 5.102.137.946.406 1.873.88 2.696l.016.035c.132.236.279.45.44.643.057.074.117.146.18.218a5.232 5.232 0 0 0 2.094 1.262c.04.015.081.03.122.043a5.464 5.464 0 0 0 2.374.15c.184-.025.366-.062.55-.113a6.34 6.34 0 0 0 .757-.247c.216-.086.431-.183.645-.292.15-.102.294-.21.432-.325a4.502 4.502 0 0 0 1.29-1.511c.05-.12.099-.24.145-.36.08-.177.15-.36.21-.546l.063-.216c.053-.16.105-.322.156-.485l.112-.347c.621-2.222.35-5.054-.686-7.114a6.609 6.609 0 0 0 -.804-1.033l-.207-.222a4.374 4.374 0 0 0 -.355-.308l-.018-.016-.042-.03a4.29 4.29 0 0 0 -1.047-.575 5.523 5.523 0 0 0 -3.84-.112 5.868 5.868 0 0 0 -.725.367 8.16 8.16 0 0 0 -.538.322zm-9.531-1.514c.5.123.98.219 1.495.251.154-.105.23-.157.302-.215.071-.057.138-.12.272-.244l.689-.114v4.935h-.803l-.173-.42c-.62-1.472-1.199-2.589-2.724-3.25-1.173-.414-2.506-.387-3.646.112-1.376.676-1.988 1.562-2.525 2.984-.683 2.02-.747 4.386-.115 6.428l.097.336c.226.705.558 1.257 1.006 1.845.16.23.16.23.274.401.058.058.166.141.23.173.052.025.104.064.164.108.073.054.158.115.265.172l.346.179.342.18c1.253.55 2.792.601 4.105.229.896-.353 1.657-.977 2.067-1.858a9.77 9.77 0 0 0 .172-.502l.077-.244c.055-.185.104-.373.152-.56h.919c.103 1.074-.324 1.998-.955 2.855-1.126 1.343-2.768 1.955-4.483 2.117-2.038.07-4.136-.654-5.646-2.038-1.579-1.521-2.42-3.226-2.493-5.424a96.271 96.271 0 0 1 -.01-.853l-.006-.41c.012-2.108.766-3.909 2.23-5.43 2.377-2.28 5.33-2.51 8.375-1.743zm55.93.592v1.8h.314v-.646h.495l.337.646h.351l-.383-.715.003-.002a.565.565 0 0 0 .307-.52.53.53 0 0 0 -.297-.497.565.565 0 0 0 -.264-.066zm.314.907h.447c.083 0 .157-.029.222-.088.066-.06.1-.145.1-.256 0-.113-.034-.195-.1-.243a.35.35 0 0 0 -.215-.074h-.454zm-.412 1.815c.236.1.489.151.759.151s.522-.05.758-.151a1.96 1.96 0 0 0 1.042-2.559 1.961 1.961 0 0 0 -1.042-1.041 1.91 1.91 0 0 0 -.758-.151c-.27 0-.523.05-.759.15a1.962 1.962 0 0 0 -1.041 1.042 1.91 1.91 0 0 0 -.152.759c0 .27.05.523.152.759a1.963 1.963 0 0 0 1.041 1.041zm1.556-.427a1.523 1.523 0 0 1 -.797.215c-.293 0-.56-.072-.8-.215a1.64 1.64 0 0 1 -.573-.573 1.536 1.536 0 0 1 -.215-.8c0-.293.071-.559.215-.798.143-.24.334-.432.573-.575.24-.143.507-.215.8-.215.292 0 .558.072.797.215.241.143.433.335.576.575s.215.505.215.798-.072.56-.215.8c-.143.239-.335.43-.576.573z"/></g></svg>