<svg fill="none" height="55" viewBox="0 0 87 55" width="87" xmlns="http://www.w3.org/2000/svg"><path clip-rule="evenodd" d="m68.233 47.375h-1.631v6.701h1.631v-6.7zm-61.373 3.246c0 1.743-1.028 2.203-3.104 2.203h-2.106v-4.244h2.882c1.553 0 2.328.648 2.328 2.041zm-2.342-3.248h-4.518v6.703h4.103c2.946 0 4.436-1.11 4.436-3.374 0-2.078-1.378-3.329-4.022-3.329zm8.508 1.222 1.569 2.788h-3.075l1.504-2.788zm.871-1.221h-1.569l-3.974 6.701h1.63l.84-1.472h4.435l.84 1.472h1.837zm5.02 0h1.648v2.71l3.912-2.71h2.359l-4.626 3.106 5.147 3.596h-2.581l-4.213-3.024v3.024h-1.648v-6.7zm11.969 6.702h1.631v-5.497h3.247v-1.205h-8.11v1.205h3.232zm7.723-5.545v1.854h3.724c.49 0 .746-.097.746-.541v-.774c0-.444-.257-.54-.746-.54h-3.724zm-1.615-1.156h6.035c1.078 0 1.57.363 1.57 1.298v1.584c0 .918-.492 1.284-1.57 1.284h-.918l3.184 2.534h-2.343l-2.807-2.534h-1.536v2.534h-1.615zm10.69 1.237h5.402v4.18h-5.401v-4.18zm5.29-1.237h-5.18c-1.314 0-1.74.3-1.74 1.584v3.532c0 1.269.41 1.584 1.74 1.584h5.18c1.316 0 1.743-.316 1.743-1.584v-3.532c0-1.284-.427-1.584-1.743-1.584zm3.242 0h1.125l5.687 4.45v-4.45h1.472v6.7h-1.125l-5.672-4.515v4.515h-1.488v-6.7zm15.684 1.236v4.18h4.402v-1.425l1.65.33v.793c0 1.254-.429 1.586-1.761 1.586h-4.18c-1.347 0-1.744-.348-1.744-1.586v-3.532c0-1.25.412-1.584 1.743-1.584h4.18c1.333 0 1.761.316 1.761 1.584v.65l-1.649.237v-1.233zm9.001 1.377v-1.41h4.61v.712l1.412-.3v-.158c0-1.17-.524-1.46-1.761-1.46h-3.975c-1.315 0-1.758.316-1.758 1.586v.743c0 1.269.443 1.586 1.758 1.586h4.34v1.536h-4.927v-.793l-1.458.27v.19c0 1.252.429 1.585 1.758 1.585h4.356c1.332 0 1.743-.333 1.743-1.585v-.918c0-1.268-.41-1.584-1.743-1.584h-4.356zm-37.428-19.337c-5.544 0-10.038-4.493-10.038-10.036 0-5.545 4.494-10.038 10.038-10.038s10.039 4.492 10.039 10.038c0 5.543-4.495 10.036-10.039 10.036zm10.039-30.113h-40.152v10.396c5.544 0 10.038 4.492 10.038 10.037 0 5.544-4.494 10.038-10.038 10.038v9.681h40.152c11.088 0 20.075-8.988 20.075-20.075 0-11.088-8.987-20.077-20.075-20.077zm18.142 36.826c0 .469-.35.499-.742.499h-.55v-.945h.627c.321 0 .665.07.665.446zm-1.755 2.207h.462v-1.319h.53l.804 1.32h.517l-.868-1.34c.448-.059.792-.294.792-.838 0-.602-.359-.868-1.077-.868h-1.16zm3.157-1.529c0 1.272-.941 2.207-2.137 2.207-1.209 0-2.152-.935-2.152-2.207 0-1.25.943-2.195 2.152-2.195 1.196 0 2.137.945 2.137 2.195zm-2.136-2.632c-1.453 0-2.684 1.117-2.684 2.633 0 1.53 1.231 2.648 2.684 2.648 1.44 0 2.668-1.119 2.668-2.648 0-1.516-1.228-2.633-2.668-2.633z" fill="#fff" fill-rule="evenodd"/></svg>