<svg fill="none" height="46" viewBox="0 0 61 46" width="61" xmlns="http://www.w3.org/2000/svg"><path clip-rule="evenodd" d="m0 34.645v-34.645h17.327l1.009.06.95.06.948.118.95.237.89.238.89.238.89.357.831.356.83.416.831.475.772.535.712.535.712.535.712.654.653.653.593.654.593-.654.653-.653.653-.595.712-.594.771-.535.772-.475.771-.475.83-.417.831-.415.831-.298.89-.297.95-.237.89-.179.95-.178.949-.06.95-.059.949.06.83.06.89.118.89.119.831.178.83.238.772.297.83.297.772.356.713.417.77.415.713.476.653.475.653.535.652.535.594.594.593.654.534.653.534.654.475.654.475.772.415.713.356.773.356.772.356.773.237.832.238.832.237.832.119.891.118.891.06.892.059.891v16.996h-8.307v-18.006l-.178-.891-.178-.892-.297-.832-.356-.772-.475-.773-.474-.713-.534-.653-.653-.595-.653-.535-.712-.475-.772-.416-.83-.297-.83-.238-.891-.178-.89-.06h-.95l-.949.12-.89.178-.83.297-.831.416-.772.416-.712.534-.653.595-.593.653-.534.654-.475.773-.415.832-.297.832-.237.89-.178.892v18.244h-8.308v-2.556l-1.008.595-1.01.535-1.126.416-1.068.356-1.187.297-1.187.238-1.187.119zm26.346-16.402v-1.841l-.178-.892-.177-.832-.357-.832-.356-.832-.474-.713-.475-.713-.593-.653-.653-.595-.712-.475-.712-.476-.83-.416-.832-.297-.83-.178-.89-.178-.95-.06h-9.02v18.125h9.97l.89-.179.83-.238.831-.296.83-.357.713-.475.712-.535.653-.535.593-.654.475-.713.474-.713.356-.832.357-.832.177-.831zm33.764 20.8-.297.059-.296.06-.238.118-.178.119-.178.238-.119.297-.118.356v.713h-.653v.714h.653v3.921h.83v-3.921h1.424v-.714h-1.483v-.297l.06-.416.118-.297.119-.119.118-.06.356-.059.297.06.297.059.118.06v-.773h-.059l-.356-.06-.415-.059zm-47.411.059v6.536h.83v-.712l.356.356.356.238.475.178.475.06.415-.06.415-.119.357-.178.356-.297.296-.298.178-.415.178-.535.06-.535-.06-.594-.178-.476-.178-.416-.296-.356-.357-.238-.356-.238-.415-.06-.415-.059-.475.06-.475.178-.356.238-.355.416v-2.674h-.832zm10.443 0v6.536h.83v-6.536zm5.281 0v2.615l-.356-.357-.415-.297-.416-.12-.534-.059-.415.06-.356.118-.415.179-.297.238-.297.356-.237.416-.178.476v1.188l.178.476.238.415.296.357.297.238.415.178.356.119.415.06.475-.06.475-.178.415-.238.356-.416v.772h.772v-6.536zm19.641 0v2.615l-.356-.357-.356-.297-.475-.12-.474-.059-.415.06-.357.118-.415.179-.356.238-.297.356-.178.416-.178.476-.059.594.06.594.177.476.178.415.297.357.356.238.415.178.357.119.415.06.474-.06.475-.178.356-.238.356-.416v.772h.831v-6.536h-.83zm-48.004.238v6.298h2.195l.653-.059.652-.178.594-.238.474-.416.416-.416.297-.535.178-.654.06-.653-.06-.654-.178-.594-.297-.535-.416-.475-.474-.357-.594-.297-.652-.178-.653-.06h-2.195zm31.864 0v6.298h.831v-4.932l3.857 4.932h.653v-6.298h-.772v4.872l-3.797-4.872zm-25.278.059-.237.06-.119.118-.119.178-.059.179.06.178.118.178.119.119h.415l.178-.119.06-.178.059-.178-.06-.179-.059-.178-.178-.119-.178-.06zm32.161 0-.178.06-.118.118-.119.178-.06.179.06.178.119.178.118.119h.416l.118-.119.12-.178.058-.178-.059-.179-.119-.178-.118-.119-.238-.06zm-37.976.713h1.424l.534.06.475.118.415.238.356.238.297.356.237.416.119.476.06.475v.06l-.06.475-.119.475-.237.357-.297.356-.356.297-.415.179-.475.178h-1.959v-4.754zm9.138.772-.475.06-.415.118-.415.238-.297.297-.297.357-.178.416-.119.416-.059.535.06.475.118.476.178.416.297.356.356.297.415.238.416.119.474.06.594-.06.474-.119.475-.297.416-.416-.475-.475-.06.059-.296.238-.356.178-.356.119-.356.06h-.298l-.297-.12-.237-.119-.237-.118-.178-.238-.12-.238-.118-.238-.06-.297h3.561v-.06l.06-.237-.06-.535-.118-.475-.178-.475-.297-.357-.297-.297-.356-.178-.415-.12-.475-.059zm10.325 0-.475.06-.475.118-.415.238-.356.297-.297.357-.237.416-.119.476-.06.475.06.535.12.416.236.416.297.356.356.297.415.238.475.119.475.06.474-.06.475-.119.416-.238.356-.297.296-.356.238-.416.119-.476.059-.475-.06-.535-.118-.416-.238-.416-.296-.357-.356-.297-.416-.237-.415-.12zm31.508 0-.474.06-.475.118-.415.238-.357.297-.296.357-.237.416-.119.476-.06.475.06.535.118.416.238.416.297.356.356.297.415.238.475.119.474.06.475-.06.475-.119.415-.238.356-.297.297-.356.237-.416.119-.476.06-.475-.06-.535-.119-.416-.237-.416-.297-.357-.356-.297-.415-.237-.416-.12zm5.282 0-.238.06-.296.06-.238.118-.178.178-.237.179-.178.238-.178.237v-1.01h-.771v4.694h.771v-1.842l.06-.475.059-.357.178-.356.177-.297.297-.238.297-.178.297-.12h.534v-.89h-.357zm-18.692.06v4.694h.831v-4.694zm1.424 0 1.78 2.317-1.839 2.377h.95l1.364-1.782 1.365 1.782h.949l-1.84-2.377 1.78-2.317h-.949l-1.305 1.723-1.305-1.723zm-33.585.178v4.516h.771v-4.516zm3.441.475h.594l.237.12.237.118.178.179.178.237.12.238.118.475h-2.79l.06-.297.119-.238.119-.237.178-.238.178-.178.237-.119zm5.4 0 .297.06.297.06.296.178.238.178.178.297.118.238.06.356.059.357-.06.356-.059.357-.118.238-.178.297-.238.178-.296.119-.297.119-.297.06-.297-.06-.296-.06-.238-.178-.237-.178-.237-.238-.12-.297-.117-.357-.06-.356.06-.297.059-.357.118-.238.178-.297.238-.178.296-.178.297-.119zm5.222 0 .297.06.356.06.237.178.237.178.238.297.118.297.12.297v.713l-.12.357-.118.238-.238.297-.178.178-.296.178-.297.06-.356.06-.297-.06-.356-.06-.237-.178-.238-.238-.237-.237-.119-.297-.118-.298v-.713l.118-.356.119-.297.237-.238.238-.178.237-.178.297-.06zm6.527 0 .297.06.296.06.297.178.237.178.179.238.178.297.06.297.058.416v.297l-.118.297-.12.297-.177.238-.238.238-.237.178-.356.119-.356.06-.296-.06-.297-.119-.238-.119-.237-.178-.178-.297-.178-.297-.06-.297-.059-.357.06-.357.059-.356.178-.297.178-.238.238-.178.236-.178.298-.06zm19.7 0 .297.06.297.06.237.178.238.178.237.238.178.297.06.297.059.416-.06.297-.059.297-.119.297-.178.238-.237.238-.297.178-.297.119-.355.06-.297-.06-.297-.119-.297-.119-.178-.178-.178-.297-.178-.297-.06-.297-.058-.357.059-.357.06-.356.118-.297.237-.238.178-.178.297-.178.297-.06.297-.06zm5.281 0 .356.06.297.06.238.178.237.178.237.297.12.297.118.297v.713l-.119.357-.119.238-.178.297-.237.178-.297.178-.297.06-.356.06-.296-.06-.297-.06-.296-.178-.238-.238-.178-.237-.178-.297-.06-.298-.059-.356v-.357l.119-.356.119-.297.237-.238.238-.178.237-.178.297-.06z" fill="#fff" fill-rule="evenodd"/></svg>