<svg fill="none" height="180" viewBox="0 0 180 180" width="180" xmlns="http://www.w3.org/2000/svg"><g stroke="#fff"><path d="m162.627 41.9316 3.544 2.045v.0009l-.25.4327 1.521.8779v1.7578h.5v4.0908h-.5v4.0908h.5v4.0909h-.5v4.0908h.5v4.0908h-.5v4.0908h.5v4.0908h-.5v4.0909h.5v4.0908h-.5v4.0908h.5v4.0918h-.5v4.0908h.5v4.0913h-.5v4.09h.5v4.091h-.5v4.091h.5v4.091h-.5v4.091h.5v4.09h-.5v4.091h.5v4.091h-.5v1.757l-1.521.879.25.432-3.544 2.045-.249-.432-3.543 2.046.25.432-3.543 2.046-.25-.432-3.542 2.044.25.433-3.544 2.045-.249-.432-3.543 2.045.249.433-3.542 2.046-.25-.433-3.543 2.045.249.433-3.542 2.046-.25-.433-3.543 2.045.249.433-3.541 2.045-.25-.432-3.543 2.045.249.432-3.542 2.046-.25-.432-3.543 2.046.249.431-3.542 2.046-.25-.433-3.543 2.046.25.433-3.544 2.045-.249-.433-3.542 2.046.249.432-3.5426 2.046-.249-.433-3.5429 2.046.25.433-3.544 2.045-.249-.433-1.5215.879-1.5215-.879-.25.433-3.5439-2.045.2509-.433-3.5429-2.046-.25.433-3.543-2.046.25-.432-3.542-2.046-.25.433-3.5439-2.045.2509-.433-3.5429-2.046-.25.433h-.001l-3.542-2.046.25-.432-3.543-2.045-.2509.432-3.542-2.046.25-.432-3.543-2.045-.251.432-3.541-2.045.25-.433-3.543-2.045-.25.433h-.0009l-3.542-2.046.25-.433-3.543-2.045-.251.433-3.542-2.046.25-.433-3.5429-2.045-.25.432-3.544-2.045.251-.433-3.542-2.044-.251.432-3.5429-2.046h.0009l.25-.432-3.5429-2.046-.25.432-3.544-2.045h.001l.25-.432-1.5215-.879v-1.757h-.5v-4.091h.5v-4.091h-.5v-4.09h.5v-4.091h-.5v-4.091h.5v-4.091h-.5v-4.091h.5v-4.09h-.5v-4.0913h.5v-4.0908h-.5v-4.0918h.5v-4.0908h-.5v-4.0908h.5v-4.0909h-.5v-4.0908h.5v-4.0908h-.5v-4.0908h.5v-4.0908h-.5v-4.0909h.5v-4.0908h-.5v-4.0908h.5v-1.7578l1.5215-.8779-.25-.4327-.001-.0009 3.544-2.045.25.4336 3.5429-2.0459-.25-.4326-.0009-.001 3.5429-2.0459.001.001.25.4326 3.542-2.0449-.25-.4326-.001-.001 3.544-2.0449.25.4326 3.5429-2.0449-.25-.4336 3.542-2.0459.001.001.25.4326 3.543-2.0449-.25-.4336 3.542-2.0459.0009.001.25.4326 3.543-2.0449-.25-.4336 3.541-2.0459.001.0009.25.4327 3.543-2.045-.25-.4336 3.542-2.0459.0009.001.25.4326 3.543-2.0459-.25-.4326 3.542-2.0459.001.001.25.4326 3.5429-2.0459-.25-.4326-.0009-.001 3.5439-2.0449.25.4336 3.542-2.0459-.25-.43262 3.543-2.0459.25.4336 3.5429-2.0459-.25-.43262-.0009-.00098 3.5439-2.04492.25.43359 1.5215-.879878 1.5215.879878.249-.43359 3.544 2.04492v.00098l-.25.43262 3.5429 2.0459.249-.4336 3.5426 2.0459h.001l-.25.43262 3.542 2.0459.249-.4336 3.544 2.0449v.001l-.25.4326 3.543 2.0459.25-.4326v-.001l3.542 2.0459h.001l-.25.4336 3.543 2.0449.25-.4326v-.001l3.542 2.0459-.249.4336 3.543 2.045.25-.4327v-.0009l3.541 2.0459h.001l-.25.4336 3.543 2.0449.25-.4326v-.001l3.542 2.0459h.001l-.25.4336 3.543 2.0449.25-.4326v-.001l3.542 2.0459-.249.4336 3.543 2.0449.249-.4326 3.544 2.0449v.001l-.25.4326 3.542 2.0449.25-.4326v-.001l3.543 2.0459v.001l-.25.4326 3.543 2.0459z" opacity=".4" stroke-dasharray="4 4"/><path d="m13.5 45 38.25 22.5" opacity=".4" stroke-dasharray="4 4"/><path d="m51.75 67.5 38.25 22.5"/><path d="m166.5 45-38.25 22.5" opacity=".4" stroke-dasharray="4 4"/><path d="m51.75 112.5-38.25 22.5" opacity=".4" stroke-dasharray="4 4"/><path d="m90 90 38.25-22.5"/><g stroke-dasharray="4 4"><path d="m128.25 112.5 38.25 22.5" opacity=".4"/><path d="m90 178.875v-45" opacity=".4"/><path d="m90 45v-45" opacity=".4"/></g><path d="m90 133.875v-43.875"/><path d="m128.471 67.7881v44.4229l-38.471 22.212-38.4707-22.212v-44.4229l38.4707-22.2119z"/><path d="m128.471 67.7881v44.4229l-38.471 22.212-38.4707-22.212v-44.4229l38.4707-22.2119z"/></g></svg>