<svg width="20" height="20" viewBox="0 0 20 20" fill="none" xmlns="http://www.w3.org/2000/svg"><path fill-rule="evenodd" clip-rule="evenodd" d="M6.14 16.692 10 18.75l3.86-2.058a6.864 6.864 0 0 0 3.64-6.067V2.5a1.251 1.251 0 0 0-1.25-1.25H3.75A1.251 1.251 0 0 0 2.5 2.5v8.125a6.863 6.863 0 0 0 3.64 6.067Zm-2.39-6.067V2.5h12.5v8.125a5.616 5.616 0 0 1-2.979 4.964L10 17.333 6.729 15.59a5.615 5.615 0 0 1-2.979-4.964ZM7.131 8.75l1.619 1.619 4.119-4.119.881.881-5 5-2.5-2.5.881-.881Z" fill="#fff"/></svg>