<svg width="20" height="20" viewBox="0 0 20 20" fill="none" xmlns="http://www.w3.org/2000/svg"><path fill-rule="evenodd" clip-rule="evenodd" d="M2.5 6.25H1.25V2.5A1.251 1.251 0 0 1 2.5 1.25h3.75V2.5H2.5v3.75ZM9.375 5h1.25v3.75h-1.25V5Zm0 6.25h1.25V15h-1.25v-3.75ZM15 9.375h-3.75v1.25H15v-1.25Zm-10 0h3.75v1.25H5v-1.25ZM2.5 18.75h3.75V17.5H2.5v-3.75H1.25v3.75a1.251 1.251 0 0 0 1.25 1.25Zm15 0h-3.75V17.5h3.75v-3.75h1.25v3.75a1.251 1.251 0 0 1-1.25 1.25Zm0-12.5h1.25V2.5a1.251 1.251 0 0 0-1.25-1.25h-3.75V2.5h3.75v3.75Z" fill="#fff"/></svg>