<svg fill="none" height="25" viewBox="0 0 134 25" width="134" xmlns="http://www.w3.org/2000/svg"><path clip-rule="evenodd" d="m32.49 0h5.332v12.754l5.68-6.083h6.583l-6.65 6.925 6.91 10.667h-6.066l-4.463-6.91-1.994 2.077v4.833h-5.332zm55.277 1.284h5.269v5.387h3.398v4.344h-3.398v8.997h3.398v4.25h-4.615c-1.314 0-2.336-.322-3.029-1.004s-1.023-1.69-1.023-2.984v-9.259h-3.053v-4.344h3.053zm-29.286 5.074c-2.602 0-4.708.803-6.297 2.424l-.001.001c-1.569 1.633-2.342 3.87-2.342 6.684 0 2.783.763 5.008 2.31 6.65 1.548 1.646 3.688 2.46 6.392 2.46 2.203 0 4.062-.52 5.564-1.572l.002-.001c1.5-1.083 2.438-2.514 2.803-4.287l.05-.24h-5.228l-.045.138c-.181.555-.55 1.004-1.119 1.347-.557.333-1.24.504-2.058.504-.995 0-1.779-.275-2.372-.809-.591-.543-.89-1.25-.89-2.139v-.724h11.394l.02-.177c.085-.717.127-1.419.127-2.105 0-2.516-.76-4.51-2.3-5.954-1.506-1.473-3.517-2.2-6.01-2.2zm-2.376 4.86c.572-.495 1.336-.75 2.313-.75.945 0 1.688.25 2.25.734l.001.001.002.001c.568.472.852 1.088.852 1.867v.114h-6.273v-.051c0-.802.285-1.434.854-1.915l.001-.002zm14.531-3.348c1.33-1.016 3.12-1.512 5.352-1.512 2.24 0 4.036.496 5.366 1.512 1.333 1.009 2.029 2.38 2.083 4.099l.006.205h-5.239l-.004-.194c-.015-.61-.21-1.037-.56-1.318-.357-.286-.908-.445-1.684-.445-.676 0-1.171.136-1.511.384-.33.24-.498.58-.498 1.045 0 .367.122.645.356.853.165.145.33.253.497.327.178.08.32.131.428.16.137.02.388.056.756.107h.002l2.96.486c1.628.244 2.876.787 3.718 1.651.845.867 1.258 2.035 1.258 3.478 0 1.834-.7 3.283-2.1 4.325l-.119-.16.119.16c-1.381 1.036-3.255 1.543-5.6 1.543-2.396 0-4.313-.523-5.726-1.59v-.001c-1.408-1.072-2.114-2.514-2.114-4.308v-.2h5.252v.2c0 .669.225 1.16.659 1.502l-.122.158.123-.157c.455.35 1.1.537 1.96.537.783 0 1.352-.148 1.732-.418h.002c.381-.264.57-.622.572-1.096v.01l.2-.02h-.2v.01c-.05-.529-.219-.85-.463-1.02l-.001-.002h-.002c-.267-.194-.65-.332-1.163-.403h-.002l-3.058-.502h-.002c-1.709-.312-3.016-.893-3.897-1.761-.887-.873-1.324-2.018-1.324-3.415 0-1.79.66-3.207 1.988-4.229zm3.657 12.31h.001zm0 0v-.001zm43.849-13.822c-2.326 0-4.209.523-5.632 1.59-1.419 1.061-2.194 2.58-2.334 4.53l-.015.213h5.206l.014-.184c.049-.656.285-1.14.695-1.474.423-.348 1.029-.534 1.847-.534.822 0 1.402.196 1.776.555.373.357.577.907.577 1.688v.803h-4.342c-1.964 0-3.544.489-4.717 1.488-1.168.993-1.746 2.357-1.746 4.067 0 1.652.511 2.99 1.548 3.995l.002.002c1.047.992 2.441 1.48 4.161 1.48 1.312 0 2.473-.268 3.477-.808h.001c.914-.502 1.563-1.162 1.931-1.985l.048.292v.002c.132.747.445 1.317.958 1.679h.002l.001.002c.509.347 1.279.504 2.273.504h3.801v-3.797h-2.114v-7.63c0-1.792-.597-3.324-1.792-4.583-1.181-1.279-3.074-1.895-5.626-1.895zm-3.324 11.99c0-.503.168-.852.486-1.084.329-.24.847-.377 1.585-.377h3.387v.412c0 1-.303 1.774-.894 2.346-.591.562-1.404.853-2.462.853-.748 0-1.273-.14-1.607-.388-.323-.24-.495-.6-.495-1.12zm-15.138-10.168c.597-1.034 1.856-1.51 3.664-1.51h6.04v4.345h-5.105v13.248h-5.268v-13.259c0-.593.042-1.098.13-1.513v-.004c.1-.43.28-.865.539-1.307zm31.484 16.097c-.567 0-1.038-.18-1.411-.54-.358-.376-.538-.838-.538-1.386 0-.549.18-1.003.538-1.363.373-.376.844-.564 1.411-.564.553 0 1.009.188 1.367.564.359.36.538.814.538 1.363 0 .548-.179 1.01-.538 1.386-.358.36-.814.54-1.367.54zm-119.325-14.547a1.106 1.106 0 0 0 -1.565 0l-1.776 1.776a1.106 1.106 0 0 0 0 1.564l1.776 1.777a1.106 1.106 0 0 0 1.565 0l1.776-1.777a1.106 1.106 0 0 0 0-1.564zm6.615-.014a1.086 1.086 0 0 1 1.537 0l1.804 1.804a1.087 1.087 0 0 1 0 1.536l-1.804 1.804a1.086 1.086 0 0 1 -1.537 0l-1.804-1.804a1.087 1.087 0 0 1 0-1.536l1.805-1.804zm-6.63-8.166a1.087 1.087 0 0 0 -1.536 0l-1.804 1.804a1.087 1.087 0 0 0 0 1.536l1.804 1.804a1.087 1.087 0 0 0 1.537 0l1.804-1.804a1.086 1.086 0 0 0 0-1.536l-1.804-1.804zm-2.291 5.873a1.106 1.106 0 0 1 0 1.564l-1.776 1.777a1.106 1.106 0 0 1 -1.564 0l-1.777-1.777a1.106 1.106 0 0 1 0-1.564l1.776-1.776a1.106 1.106 0 0 1 1.564 0l1.776 1.776zm-4.069 5.633a1.087 1.087 0 0 0 0-1.536l-1.805-1.804a1.087 1.087 0 0 0 -1.537 0l-1.804 1.804a1.087 1.087 0 0 0 0 1.536l1.804 1.804a1.086 1.086 0 0 0 1.537 0l1.804-1.804zm12.235-5.633a1.107 1.107 0 0 1 0 1.564l-1.776 1.777a1.106 1.106 0 0 1 -1.565 0l-1.776-1.777a1.107 1.107 0 0 1 0-1.564l1.777-1.776a1.106 1.106 0 0 1 1.564 0zm-4.893 15.16a2.472 2.472 0 1 0 -3.496-3.496 2.472 2.472 0 0 0 3.496 3.496z" fill="#fff" fill-rule="evenodd"/></svg>