<svg xmlns="http://www.w3.org/2000/svg" width="40" height="40" fill="none" viewBox="0 0 40 40"><path fill="#fff" d="M35.5 19.25v7.5h-30v-20h8.75v-2.5H5.5A2.5 2.5 0 0 0 3 6.75v20a2.5 2.5 0 0 0 2.5 2.5h10v5h-5v2.5h20v-2.5h-5v-5h10a2.5 2.5 0 0 0 2.5-2.5v-7.5h-2.5Zm-12.5 15h-5v-5h5v5Z"/><path fill="#676BEB" d="M23 21.75h-.012a1.25 1.25 0 0 1-1.19-.907L19.558 13H14.25v-2.5h6.25a1.25 1.25 0 0 1 1.202.907l1.343 4.698 3.76-12.223A1.268 1.268 0 0 1 28 3a1.225 1.225 0 0 1 1.186.855L31.4 10.5H38V13h-7.5a1.25 1.25 0 0 1-1.186-.855l-1.266-3.8-3.853 12.523A1.25 1.25 0 0 1 23 21.75Z"/></svg>