<svg width="122" height="31" viewBox="0 0 122 31" fill="none" xmlns="http://www.w3.org/2000/svg"><path fill-rule="evenodd" clip-rule="evenodd" d="M9.889 4.059a21.928 21.928 0 0 0-5.805 6.96v-.003a43.925 43.925 0 0 0-3.58 8.29c-.6-1.783-.523-8.675-.467-13.69C.062 3.412.082 1.57.04.683.305.685 5.96.72 9.89 4.06Zm-8.69 14.88c2.994-3.572 9.08-8.342 14.064-9.416 2.098-4.67 2.177-7.035 2.179-7.101V2.42C8.09 1.204 2.548 14.57 1.199 18.938v.001Zm29.26 11.056c.127-1.026.222-1.834.29-2.416l.038-.317c.066-.625.099-1.254.097-1.883l.829-13.479.054-3.67V6.775l3.235-.006 7.652 17.54L50.05 6.776h3.23v.592c0 .549.012 1.21.038 1.988s.058 1.63.103 2.548l.801 13.475.17 2.04.18 1.913.136 1.186h-3.219v-.69c0-.68-.018-1.456-.054-2.325a194.13 194.13 0 0 0-.097-2.124l-.95-15.222-7.538 17.742h-1.713l-7.71-17.62-.9 15.1-.082 4.544v.595H30.39l.069-.522Zm33.88-16.443a6.278 6.278 0 0 1 5.133 2.34 9.647 9.647 0 0 1 1.911 6.295 9.798 9.798 0 0 1-1.91 6.328 6.767 6.767 0 0 1-10.273.014 9.773 9.773 0 0 1-1.905-6.342 9.646 9.646 0 0 1 1.905-6.295 6.289 6.289 0 0 1 5.14-2.34Zm-4.325 8.635a15.337 15.337 0 0 0 .298 3.343 6.859 6.859 0 0 0 1.288 2.573 3.252 3.252 0 0 0 2.74 1.304 3.424 3.424 0 0 0 1.648-.449 4.272 4.272 0 0 0 1.433-1.285 5.982 5.982 0 0 0 .924-2.158c.226-1.04.33-2.103.312-3.167.027-1.16-.072-2.32-.295-3.459a5.681 5.681 0 0 0-.941-2.143 4.584 4.584 0 0 0-1.433-1.288 3.45 3.45 0 0 0-1.647-.428 3.23 3.23 0 0 0-2.773 1.303 7.19 7.19 0 0 0-1.256 2.556 14.942 14.942 0 0 0-.298 3.298Zm15.178-8.4h-2.777l-.001 1.296h2.777V26.94c0 2.526 1.228 3.79 3.685 3.79.442.002.884-.043 1.316-.134.442-.1.871-.247 1.282-.438v-1.843a3.08 3.08 0 0 1-2.017.86 1.427 1.427 0 0 1-1.34-.645 4.616 4.616 0 0 1-.38-2.222V15.083h3.474v-1.296h-3.474V8.283h-2.688l.143 3.067v2.437Zm9.743-5.788a1.415 1.415 0 0 1 1.582 1.622c0 1.097-.582 1.646-1.745 1.646-1.188 0-1.783-.549-1.783-1.646 0-1.083.649-1.623 1.946-1.622Zm-1.712 21.955c.093-.593.165-1.311.216-2.155.046-.845.072-1.638.072-2.385v-8.808c.007-.418-.013-.836-.058-1.252-.034-.25-.109-.743-.22-1.475v-.006l-.001-.003-.01-.059h2.854v13.553l.129 2.589v.567h-3.018l.036-.566Zm8.838-13.768-.637-2.4-2.904.002c.968 3.269 1.754 5.781 2.374 7.527.62 1.745 1.18 3.265 1.7 4.547.522 1.282 1.177 2.84 1.97 4.66h2.337a285.22 285.22 0 0 0 1.883-4.726c.424-1.109.908-2.456 1.443-4.038.538-1.579.927-2.77 1.166-3.573.239-.803.643-2.269 1.212-4.397h-1.818a111.297 111.297 0 0 1-1.012 3.834c-.329 1.151-.662 2.244-.998 3.289a59.63 59.63 0 0 1-1.164 3.262 111.596 111.596 0 0 1-1.57 3.833c-1.079-2.764-1.964-5.249-2.657-7.44-.694-2.192-1.075-3.442-1.155-3.737l-.17-.643Zm22.103 1.953a2.791 2.791 0 0 0-1.291-2.368 5.547 5.547 0 0 0-3.308-.925 8.793 8.793 0 0 0-4.137 1.172v-2.231a24.848 24.848 0 0 1 4.094-.363c1.84-.1 3.672.31 5.293 1.184a3.728 3.728 0 0 1 1.896 3.33v9.06c-.012.739.032 1.478.131 2.21l.358 1.316h-2.805a4.177 4.177 0 0 1-.233-1.31v-.427c-.8.625-1.678 1.143-2.611 1.54a6.597 6.597 0 0 1-2.449.46 5.31 5.31 0 0 1-3.752-1.334 4.487 4.487 0 0 1-1.436-3.438 4.39 4.39 0 0 1 1.367-3.276 13.595 13.595 0 0 1 4.598-2.551l4.284-1.417.001-.633Zm0 1.905-3.602 1.3c-2.718 1.168-4.078 2.633-4.081 4.394a3.079 3.079 0 0 0 1.007 2.396c.725.626 1.663.951 2.62.908a6.045 6.045 0 0 0 4.054-1.646l.002-7.352Zm3.266-10.59a2.279 2.279 0 0 0-.189.924c-.002.318.062.633.189.924a2.42 2.42 0 0 0 1.266 1.267 2.358 2.358 0 0 0 1.849 0 2.42 2.42 0 0 0 1.267-1.267 2.368 2.368 0 0 0 0-1.848 2.42 2.42 0 0 0-1.267-1.267 2.357 2.357 0 0 0-1.849 0 2.415 2.415 0 0 0-1.266 1.267Zm.32 1.717a1.985 1.985 0 0 1-.163-.793 1.985 1.985 0 0 1 .163-.793 2.032 2.032 0 0 1 2.668-1.081 2.034 2.034 0 1 1-1.587 3.748 2.034 2.034 0 0 1-1.081-1.08Zm1.007.57h.345l.002-1.2h.491l.819 1.203h.39l-.819-1.203a1.21 1.21 0 0 0 .265-.082.735.735 0 0 0 .221-.147.652.652 0 0 0 .151-.227.872.872 0 0 0 .054-.328.765.765 0 0 0-.199-.566.927.927 0 0 0-.665-.195h-1.055v2.744Zm.787-1.51h-.442v-.928h.614c.075 0 .149.007.221.022a.65.65 0 0 1 .199.074.414.414 0 0 1 .14.137.399.399 0 0 1 .054.221.43.43 0 0 1-.07.266.436.436 0 0 1-.183.14.764.764 0 0 1-.252.058c-.094.01-.187.01-.28.01h-.001ZM15.651 9.808a63.04 63.04 0 0 1-4.398 7.89 34.882 34.882 0 0 1 6.819.256c5.099-4.132 6.713-7.301 6.787-7.446l.003-.005a14.61 14.61 0 0 0-9.21-.69v-.005Zm-4.77 8.298c2.2-.157 4.409-.105 6.599.155a61.892 61.892 0 0 1-11.9 7.16 106.385 106.385 0 0 0 5.3-7.315Zm-.302-.385c-3.1.227-6.17.763-9.163 1.6v-.001c1.747-2.025 6.959-7.512 13.55-9.355a63.779 63.779 0 0 1-4.387 7.756Zm7.65.544a62.205 62.205 0 0 1-12.773 7.72c6.663.995 13.45.81 20.049-.55v-4.813a21.92 21.92 0 0 0-7.271-2.357h-.005Zm-13.76 7.658a15.059 15.059 0 0 1-3.684-5.991l-.003-.001a44.99 44.99 0 0 1 9.412-1.783 105.381 105.381 0 0 1-5.724 7.775Zm9.653 1.255a59.926 59.926 0 0 1-8.942-.684 15.377 15.377 0 0 0 10.028 3.894v-3.222c-.36.006-.723.012-1.086.012Zm1.688-.025a15.412 15.412 0 0 0 9.694 3.237v-4.394a52.749 52.749 0 0 1-9.694 1.157Zm.116-17.783c.115-.253.224-.505.328-.757h-.005a21.654 21.654 0 0 0 1.72-5.932 13.14 13.14 0 0 1 6.666 7.324 15.147 15.147 0 0 0-8.709-.635Zm.063-7.55A18.14 18.14 0 0 0 10.305.686v3.08A10.666 10.666 0 0 1 15.99 1.82Zm2.809 16.203c.84-.697 1.626-1.4 2.358-2.11a24.71 24.71 0 0 0 3.91-4.704c.486 1.68.46 4.658.44 7.036-.007.735-.013 1.412-.003 1.976a22.315 22.315 0 0 0-6.705-2.198Z" fill="#fff"/></svg>