<svg xmlns="http://www.w3.org/2000/svg" width="102" height="20" fill="none" viewBox="0 0 102 20"><path fill="#fff" fill-rule="evenodd" d="M77.94 14.78h-2.607v4.345H70.12V.882c.695-.015 4.802 0 6.953 0 5.56 0 8.69 1.993 8.69 6.949 0 4.512-2.78 6.95-7.822 6.95ZM76.203 4.358c-.278 0-.553-.02-.869 0v6.951h.87c2.816 0 4.344-1.182 4.344-3.476 0-2.22-1.112-3.475-4.345-3.475ZM60.56.875h5.214v18.25H60.56V.875Zm-12.167 18.25V.875h5.214v14.774h5.215l-.87 3.476h-9.56ZM38.833.875h5.215v18.25h-5.215V.875Zm-9.56 10.428h-5.214v7.822h-5.214V.875h5.214v6.952h5.214V.875h5.215v18.25h-5.215v-7.822ZM8.417 14.78H5.81v4.345H.595V.882c.696-.015 4.802 0 6.952 0 5.561 0 8.691 1.993 8.691 6.949 0 4.512-2.78 6.95-7.82 6.95ZM95.073.876c2.35 0 4.16.435 5.463.87V5.22c-1.288-.513-3.113-.9-4.856-.9-1.592 0-2.966.031-2.966 1.335 0 1.626 1.902 2.12 3.926 2.786l.42.14c2.172.744 4.345 1.786 4.345 4.718 0 4.397-3.376 5.826-7.999 5.826-1.818 0-4.239-.282-5.906-.869V14.78c1.667.806 3.83.869 5.649.869 2.046 0 3.061-.629 3.061-1.728 0-2.858-8.638-1.612-8.638-7.77 0-3.572 3.03-5.276 7.501-5.276ZM5.81 4.358c.316-.02.592 0 .87 0 3.224 0 4.344 1.256 4.344 3.475 0 2.294-1.528 3.476-4.344 3.476h-.87V4.358Z" clip-rule="evenodd"/></svg>