<svg fill="none" height="28" viewBox="0 0 134 28" width="134" xmlns="http://www.w3.org/2000/svg"><path clip-rule="evenodd" d="m8.935 0-8.935 8.934 8.935 8.933 8.935-8.933zm7.186 8.898-.725.724-2.84 2.84c.161-.208.243-.462.243-.742 0-.89-.847-1.097-1.174-1.177l-.035-.009-.096-.024c-.937-.241-1.119-.288-1.119-.591 0-.342.33-.462.616-.462.428 0 .776.125.805.615h.866c0-.94-.781-1.311-1.63-1.311-.393 0-.794.116-1.088.348.346-.41.64-.863.872-1.351a5.023 5.023 0 0 1 2.013-2.152l2.404 2.404.008.007.88.88zm-10.35 4.002v-.002a.57.57 0 0 0 -.106-.135 5.013 5.013 0 0 1 2.235-2.065 6.238 6.238 0 0 0 1.78-1.301 1.091 1.091 0 0 0 -.172.596c0 .764.61.998 1.214 1.158l.263.066c.502.123.946.232.946.607 0 .416-.479.508-.792.508-.48 0-.901-.211-.901-.753h-.867c-.011 1.004.833 1.448 1.733 1.448.547 0 .965-.136 1.25-.365l-2.305 2.305-.003.003-1.103 1.102zm3.192-11.16.249.25 2.725 2.724a6.187 6.187 0 0 0 -2.228 2.52 4.994 4.994 0 0 1 -.794 1.189 1.444 1.444 0 0 1 -.085-.352c-.028-.41-.154-.838-.593-.952v-.012c.45-.183.644-.541.644-1.02 0-.617-.462-1.124-1.192-1.124h-1.949l.235-.235 2.987-2.987zm-.977 4.484c0 .41-.217.582-.616.582h-.98v-1.147h.98c.399 0 .616.17.616.565zm-3.226 5.664-.052-.052c.013-.025-.285-.322-.285-.322-.012.021-2.1-2.062-2.636-2.597l.007-.008 3.7-3.699v3.825h.895v-1.591h.895c.45 0 .616.188.679.616.04.283.14.74.236 1.022a4.953 4.953 0 0 1 -.827.51 6.152 6.152 0 0 0 -2.612 2.296zm13.94 10.444c0-2.727-1.813-4.68-4.53-4.68s-4.532 1.953-4.532 4.68c0 2.73 1.815 4.683 4.532 4.683s4.53-1.954 4.53-4.683zm-2.753 0c0 1.992-1.077 2.454-1.777 2.454-.702 0-1.778-.462-1.778-2.454 0-1.989 1.077-2.451 1.778-2.451.7 0 1.777.462 1.777 2.451zm-10.703-4.465h-5.244v8.933h2.753v-3.117h1.465c1.084 0 1.163.884 1.238 1.732l.001.009c.037.463.088.927.225 1.376h2.753c-.203-.337-.25-1.106-.28-1.615a12.506 12.506 0 0 0 -.02-.299c-.1-1.115-.562-1.94-1.314-2.228.914-.338 1.34-1.314 1.34-2.241 0-1.688-1.352-2.551-2.917-2.551zm-1.052 3.903h-1.44v-1.777h1.29c1.052 0 1.365.325 1.365.888 0 .801-.701.89-1.215.89zm16.234-3.903h2.754v3.102h2.58v-3.102h2.752v8.933h-2.753v-3.54h-2.58v3.54h-2.753v-8.934zm15.27 0h-4.518v8.933h3.98c3.117 0 4.569-1.74 4.569-4.48 0-2.254-1.051-4.454-4.03-4.454zm-.688 6.644h-1.077v-4.355h.878c1.99 0 2.164 1.563 2.164 2.127 0 .838-.25 2.228-1.965 2.228zm6.409-6.644h7.398v2.289h-4.645v1.113h4.218v2.127h-4.218v1.115h4.78v2.29h-7.535v-8.934zm23.935 6.518a1.627 1.627 0 0 1 -.1-.588h-2.755c.025 2.855 2.917 3.218 3.93 3.218 1.99 0 4.131-.752 4.131-3.08 0-1.64-1.251-2.228-2.516-2.577-.269-.075-.538-.14-.796-.202-.956-.23-1.755-.423-1.794-.925 0-.501.613-.6.989-.6.275 0 .588.062.813.224.225.15.375.375.325.713h2.604c-.075-2.176-1.79-2.916-3.73-2.916-1.84 0-3.605.889-3.605 2.953 0 1.738 1.5 2.161 2.876 2.549l.154.043c1.538.438 1.927.563 1.927 1.026 0 .664-.689.813-1.14.813-.512 0-1.113-.112-1.313-.65zm12.441-3.19c-.05-.327-.3-1.314-1.44-1.314-1.288 0-1.702 1.25-1.702 2.451 0 1.203.413 2.454 1.703 2.454.926 0 1.288-.65 1.451-1.49h2.704c0 1.803-1.465 3.719-4.08 3.719-2.892 0-4.532-2.04-4.532-4.683 0-2.815 1.778-4.68 4.532-4.68 2.453.012 3.805 1.302 4.041 3.543zm7.496-3.328h-2.754v8.933h2.754v-3.54h2.578v3.54h2.753v-8.934h-2.753v3.102h-2.578v-3.102zm16.921 8.933h-2.679l-.964-5.443h-.024l-.94 5.443h-2.69l-2.428-8.934h2.703l1.09 5.517h.025l1.076-5.517h2.428l1.052 5.592h.024l1.113-5.592h2.718zm8.823-8.934h-2.691l-3.291 8.934h2.765l.401-1.276h2.84l.377 1.276h2.853zm-1.327 2.989.802 2.754h-1.691l.865-2.754zm6.196-2.99h5.244c1.564 0 2.916.864 2.916 2.552 0 .927-.426 1.903-1.34 2.24.752.29 1.214 1.114 1.314 2.23.007.081.014.186.021.304.031.51.077 1.273.28 1.61h-2.754c-.139-.45-.188-.913-.226-1.377v-.004c-.073-.849-.149-1.737-1.238-1.737h-1.463v3.117h-2.754v-8.934zm2.754 3.904h1.439c.513 0 1.214-.088 1.214-.889 0-.563-.313-.888-1.364-.888h-1.289zm11.515-1.614-4.157 4.492v2.154h7.986v-2.29h-4.392l4.191-4.644v-2h-7.545v2.288h3.918zm-75.43 6.902c1-.002 1.759-.204 2.581-.852l.508.633 2.963-.004-1.853-2.213c.582-.61.937-1.42 1.061-2.193l-2.089.004c-.038.227-.164.468-.328.683l-.697-.859c.86-.457 1.656-1.307 1.655-2.332-.002-1.607-1.22-2.343-2.903-2.34-1.342.002-2.683.903-2.681 2.347 0 .634.292 1.19.711 1.645-.986.508-2.011 1.346-2.01 2.548.003 1.76 1.347 2.935 3.081 2.933zm-.676-2.848c0-.456.506-.786.873-.977l1.053 1.278c-.304.28-.658.545-1.063.546-.43 0-.862-.353-.863-.847zm2.324-4.334c0 .419-.366.774-.72.938a13.657 13.657 0 0 0 -.074-.085c-.22-.25-.484-.555-.485-.838 0-.392.355-.621.67-.621a.6.6 0 0 1 .61.606z" fill="#fff" fill-rule="evenodd"/></svg>