<svg width="66" height="85" viewBox="0 0 66 85" fill="none" xmlns="http://www.w3.org/2000/svg"><path fill-rule="evenodd" clip-rule="evenodd" d="M60.68 9.224c-9.907-4.318-19.584-5.69-28.038-5.626h-.002c-8.454-.064-18.133 1.308-28.038 5.626-1.18-2.14-1.663-3.436-1.663-3.436C13.767 1.503 23.908.037 32.64 0c8.733.037 18.875 1.503 29.704 5.788 0 0-.34 1.053-1.664 3.436ZM32.645 59.152l8.31-46.74c7.922 0 10.42.869 10.782 4.414 0 0 5.314-1.981 7.994-6.005-10.459-4.847-20.968-5.065-20.968-5.065l-6.125 7.46-6.125-7.462s-10.51.22-20.967 5.066c2.678 4.024 7.994 6.005 7.994 6.005.363-3.545 2.858-4.414 10.727-4.42l8.378 46.747ZM22.79 77.627h-6.328c-.872-.175-1.536-.95-1.718-1.701h9.764c-.184.75-.838 1.526-1.718 1.701Zm-21.076.01C.833 77.446.19 76.687 0 75.946v-.017h10.7v.016a2.395 2.395 0 0 1-1.706 1.69H6.328l-.151.054v6.721H4.513V77.69l-.136-.054H1.714ZM22.79 84.43h-6.328c-.872-.175-1.536-.95-1.718-1.701h9.764c-.184.75-.838 1.526-1.718 1.701Zm-6.328-3.447h6.328c.88-.174 1.534-.95 1.718-1.702h-9.764c.182.752.846 1.528 1.718 1.702Zm14.431-3.372h5.846c.882-.256 1.622-.927 1.802-1.672h-9.286v5.017h7.6v1.76l-5.961.006c-.935.26-1.727.887-2.122 1.716l.483-.009h9.233v-5.14h-7.595V77.61Zm21.342 5.147c-.171.713-.617 1.321-1.447 1.673H43.2v-8.49l1.655-.004-.004 6.822h7.383Zm5-5.124h6.33c.88-.175 1.534-.95 1.718-1.701H55.52c.182.75.846 1.526 1.717 1.701Zm-1.462 6.794v-5.133l9.283.009v5.124H63.41V81.01h-5.992v3.418h-1.646Z" fill="#fff"/></svg>